<svg id="Capa_1" fill="#fff" viewBox="0 0 512 512" xmlns="http://www.w3.org/2000/svg"><g><path d="m510.712 251.091c-27.856-49.426-25.701-45.939-27.124-47.363-1.954-1.939-4.531-2.912-7.047-2.912h-49.49c-3.61 0-6.94 1.946-8.712 5.091l-22.59 40.093h-19.717c-2.123-25.71-12.355-49.152-28.127-67.762l13.984-13.984c46.318 12.8 44.562 12.744 47.011 12.744 2.616 0 5.171-1.028 7.072-2.929 37.749-37.753 35.27-35.199 35.923-36.073 1.888-2.516 2.454-5.756 1.632-8.682l-13.947-49.952c-.941-3.369-3.573-6.002-6.942-6.942-54.518-15.215-50.648-14.31-52.686-14.31-2.753.015-5.23 1.143-7.027 2.923l-34.994 34.995c-2.553 2.553-3.531 6.283-2.561 9.761l12.376 44.322-13.984 13.984c-18.611-15.771-42.052-26.003-67.761-28.126v-19.717l40.093-22.591c3.145-1.771 5.091-5.102 5.091-8.712-.004-54.183.172-50.268-.395-52.246-.727-2.531-2.425-4.681-4.696-5.956l-45.185-25.459c-3.049-1.717-6.77-1.717-9.818 0-15.351 8.651-43.151 24.31-45.244 25.499-3.177 1.819-5.03 5.191-5.03 8.672v49.49c0 3.61 1.946 6.94 5.091 8.712l40.092 22.591v19.717c-25.709 2.123-49.151 12.355-67.762 28.127l-13.984-13.984 12.376-44.323c.971-3.478-.008-7.208-2.561-9.761l-34.994-34.995c-2.524-2.535-6.316-3.528-9.761-2.561l-49.951 13.948c-3.369.94-6.002 3.573-6.942 6.942-2.616 9.373-13.619 48.758-13.966 50.043-.947 3.508.111 7.201 2.579 9.67l34.995 34.994c2.567 2.567 6.305 3.526 9.761 2.561l44.323-12.376 13.984 13.984c-15.771 18.611-26.003 42.052-28.126 67.762h-19.717l-22.59-40.093c-1.771-3.145-5.102-5.091-8.712-5.091-.165 0-49.455.004-49.555.004-3.676.018-6.965 2.084-8.647 5.086l-25.462 45.185c-1.718 3.048-1.718 6.77 0 9.818 8.165 14.488 24.931 44.256 25.506 45.256 1.743 3.037 5.031 5.019 8.681 5.019h49.474c3.61 0 6.94-1.946 8.712-5.091l22.591-40.093h19.717c2.123 25.709 12.355 49.151 28.126 67.761l-13.984 13.984-44.322-12.376c-3.479-.972-7.208.009-9.761 2.561-7.5 7.501-34.59 34.585-35.041 35.048-2.506 2.529-3.475 6.258-2.515 9.708l13.947 49.952c.94 3.369 3.573 6.002 6.942 6.942.106.03 50.073 13.98 49.962 13.949 3.505.977 7.257-.07 9.75-2.563l34.994-34.995c2.553-2.553 3.531-6.283 2.561-9.761l-12.376-44.323 13.984-13.984c18.611 15.771 42.053 26.004 67.762 28.127v19.717l-40.093 22.591c-3.145 1.772-5.091 5.102-5.091 8.712.234 51.139-.566 50.181.796 53.394.826 1.944 2.315 3.688 4.295 4.808l45.184 25.459c3.039 1.711 6.757 1.724 9.818 0 49.027-27.911 46.426-25.363 48.606-28.679.93-1.41 1.401-2.813 1.582-4.206.167-1.297.047 1.235.086-50.776 0-3.61-1.946-6.94-5.091-8.712l-40.09-22.59v-19.717c25.709-2.123 49.151-12.355 67.762-28.127l13.984 13.984-12.376 44.323c-.971 3.478.008 7.208 2.561 9.761 11.363 11.362 34.093 34.097 35.04 35.037 3.714 3.68 8.479 2.806 8.379 2.795 1.338-.183-2.403.733 51.288-14.223 3.369-.94 6.002-3.573 6.942-6.942 15.152-54.286 14.315-50.667 14.311-52.657-.006-2.562-1.001-5.114-2.925-7.056l-34.995-34.995c-2.553-2.553-6.281-3.529-9.761-2.561l-44.323 12.376-13.984-13.984c15.771-18.611 26.003-42.052 28.126-67.762h19.717l22.591 40.093c1.771 3.145 5.102 5.091 8.712 5.091 53.711.002 49.73.062 50.957-.116 2.912-.431 5.717-2.235 7.246-4.975l25.459-45.184c1.719-3.048 1.719-6.77.001-9.818zm-77.817-30.275h26.539l-14.19 25.184h-26.539zm-144.694 130.34c7.532-14.408 12.121-32.214 14.773-48.182 15.974-2.651 33.777-7.241 48.183-14.773-10.021 29.53-33.426 52.936-62.956 62.955zm-127.357-62.955c14.406 7.531 32.212 12.121 48.182 14.772 2.651 15.973 7.241 33.777 14.773 48.182-29.53-10.019-52.935-33.424-62.955-62.954zm62.955-127.357c-7.531 14.408-12.122 32.213-14.773 48.183-15.968 2.651-33.777 7.242-48.182 14.773 10.02-29.531 33.425-52.936 62.955-62.956zm127.358 62.955c-14.403-7.53-32.211-12.121-48.183-14.773-2.652-15.974-7.242-33.777-14.773-48.183 29.53 10.021 52.936 33.426 62.956 62.956zm-45.582 58.328c1.489-17.292 1.489-34.955 0-52.255 31.743 6.257 50.874 17.685 50.874 26.127 0 8.444-19.131 19.871-50.874 26.128zm-150.024-26.127c0-8.443 19.131-19.87 50.874-26.127-1.488 17.291-1.489 34.956 0 52.255-31.743-6.258-50.874-17.685-50.874-26.128zm71.264-29.185c18.587-1.973 39.106-2.045 58.37 0 1.982 18.664 2.038 39.184 0 58.37-18.587 1.973-39.106 2.045-58.37 0-1.982-18.663-2.037-39.184 0-58.37zm55.313-20.39c-17.291-1.488-34.955-1.489-52.255 0 6.257-31.743 17.685-50.874 26.127-50.874 8.443 0 19.87 19.131 26.128 50.874zm-52.255 99.15c17.291 1.488 34.957 1.489 52.255 0-6.257 31.743-17.685 50.874-26.127 50.874-8.444 0-19.871-19.131-26.128-50.874zm176.089-149.78-27.841-7.773 18.766-18.765 27.841 7.774zm23.528-38.201-27.426-7.658-7.658-27.426 27.426 7.658zm-73.285-11.556 18.765-18.765 7.774 27.841-18.765 18.765zm-90.205-12.743v-26.538l25.184-14.19v26.539zm-10-71.816 24.808 13.978-24.808 13.978-24.808-13.978zm-35.183 57.627v-26.539l25.183 14.19v26.539zm-72.795 54.773-18.765-18.765 7.774-27.841 18.765 18.765zm-30.428-51.369-7.658 27.426-27.426 7.658 7.658-27.426zm-11.556 73.285-18.765-18.765 27.841-7.774 18.765 18.765zm-12.743 90.205h-26.538l-14.19-25.184h26.539zm-57.838-14.808 13.978 24.808-13.978 24.808-13.978-24.808zm43.649 59.992h-26.539l14.19-25.184h26.539zm26.932 65.02 27.841 7.774-18.765 18.766-27.841-7.774zm-23.527 38.202 27.426 7.658 7.658 27.426-27.426-7.658zm73.284 11.556-18.765 18.765-7.774-27.841 18.765-18.765zm90.205 12.743v26.539l-25.184 14.19v-26.539zm10 71.817-24.808-13.978 24.808-13.979 24.808 13.978zm35.184-57.627v26.539l-25.184-14.191v-26.539zm72.795-54.774 18.765 18.765-7.773 27.841-18.765-18.765zm30.427 51.369 7.658-27.426 27.426-7.658-7.658 27.426zm11.556-73.286 18.766 18.766-27.841 7.774-18.765-18.766zm12.743-90.204h26.539l14.19 25.184h-26.539zm57.839 14.808-13.978-24.808 13.978-24.808 13.978 24.808z"/></g></svg>