<svg id="Layer_1" fill="#fff" viewBox="0 0 510 510" xmlns="http://www.w3.org/2000/svg"><g><path d="m0 390h30v30h-30z"/><path d="m480 390h30v30h-30z"/><path d="m342.811 60h24.689l45 60h55.243l-20.494-71.729-46.611-15.537-16.367-32.734h-60.484l-17.574 17.574 30.771 30.77z"/><path d="m137.189 60h30l5.828-11.656 30.77-30.771-17.574-17.573h-60.484l-16.367 32.734-46.612 15.537-20.493 71.729h64.931z"/><path d="m185.73 90h-30l-15 30h234.27l-22.5-30h-28.229l-11.943-23.885-57.328-57.328-57.328 57.328z"/><path d="m120 240h-87.297l24 120h63.297z"/><path d="m390 360h63.297l24-120h-87.297z"/><path d="m150 240h30v120h-30z"/><path d="m330 240h30v120h-30z"/><path d="m60 390h390v45h-390z"/><path d="m210 240h30v120h-30z"/><path d="m270 240h30v120h-30z"/><path d="m150 510c24.852 0 45-20.147 45-45h-90c0 24.853 20.147 45 45 45z"/><path d="m360 510c24.853 0 45-20.147 45-45h-90c0 24.853 20.147 45 45 45z"/><path d="m0 150v30h30v30h450v-30h30v-30c-22.608 0-497.055 0-510 0z"/></g></svg>