<svg id="Layer_1" fill="#fff" viewBox="0 0 512 512" xmlns="http://www.w3.org/2000/svg"><path d="m323.746 263.362c51.303 0 99.428 7.084 135.513 19.946 33.2 11.835 52.241 27.22 52.241 42.21 0 15.001-19.041 30.389-52.24 42.22-36.076 12.855-84.202 19.935-135.514 19.935-71.769 0-136.729-14.103-168.593-35.849 6.223-2.24 12.529-4.687 18.891-7.315 23.865 15.33 82.674 25.449 149.702 25.449 42.032 0 81.628-3.925 111.494-11.05 33.942-8.098 51.152-19.333 51.152-33.39 0-14.046-17.21-25.276-51.151-33.379-29.881-7.132-69.477-11.061-111.496-11.061-13.347 0-26.424.41-39.14 1.196 8.385-6.131 16.367-12.38 23.891-18.695 4.842-.142 9.947-.217 15.25-.217zm-320.626 22.314c-.001-.002-.002-.003-.003-.005-7.501-12.992 1.294-35.843 24.131-62.693 24.818-29.179 62.952-59.368 107.381-85.008 44.432-25.657 89.647-43.588 127.316-50.495 34.666-6.353 58.85-2.55 66.352 10.446 0 .001.001.001.001.002 7.497 12.993-1.299 35.842-24.133 62.689-24.817 29.179-62.952 59.368-107.382 85.009-44.407 25.65-89.618 43.578-127.303 50.483-34.667 6.349-58.853 2.549-66.36-10.428zm45.531-2.522c9.758 0 22.179-2.236 37.21-6.712 29.428-8.762 65.677-25.163 102.065-46.181 36.39-21.003 68.714-44.194 91.02-65.298 25.339-23.975 34.632-42.302 27.618-54.48-7.03-12.167-27.55-13.293-60.994-3.342-29.434 8.758-65.688 25.15-102.082 46.155-.001.001-.002.001-.002.002-36.397 21.023-68.72 44.221-91.016 65.324-25.338 23.982-34.621 42.312-27.59 54.482 3.87 6.699 11.825 10.05 23.771 10.05zm275.095 119.303c-82.094 0-153.931-17.55-185.457-44.991-.758.234-1.513.462-2.267.689v31.253c0 11.164 10.551 22.545 29.627 32.516v-18.96h14.783v25.711c2.517 1.011 5.121 2.003 7.829 2.968 11.444 4.081 24.104 7.578 37.689 10.454v-21.987h14.783v24.807c14.41 2.464 29.668 4.273 45.488 5.381v-22.676h14.783v23.497c7.491.311 15.081.473 22.744.473 7.673 0 15.273-.162 22.774-.474v-23.496h14.783v22.674c15.82-1.107 31.078-2.918 45.488-5.381v-24.805h14.783v21.984c13.584-2.875 26.242-6.372 37.685-10.452 2.709-.966 5.314-1.958 7.832-2.969v-25.71h14.783v18.959c19.076-9.971 29.627-21.351 29.627-32.515v-34.1c-10.516 9.976-26.457 18.935-47.278 26.355-37.631 13.41-87.519 20.795-140.479 20.795zm-195.445-79.831 12.808-7.384 12.372 21.461c13.716-5.075 27.84-11.141 42.101-18.097l-11.318-19.62 12.806-7.388 11.725 20.326c6.65-3.479 13.309-7.138 19.952-10.974 6.636-3.83 13.128-7.763 19.459-11.777l-11.75-20.35 12.803-7.392 11.341 19.643c13.159-8.874 25.479-18.076 36.736-27.42l-12.399-21.458 12.801-7.396 10.991 19.022c10.321-9.277 19.531-18.629 27.399-27.879 1.859-2.186 3.615-4.342 5.287-6.472l-12.85-22.289 12.808-7.384 9.474 16.434c11.543-18.177 14.995-33.312 9.412-42.982-5.245-9.076-10.492-18.163-15.739-27.249-.441-.763-.882-1.526-1.323-2.29-4.118 13.902-13.444 29.636-27.769 46.478-25.886 30.434-65.395 61.77-111.251 88.234-45.832 26.473-92.723 45.019-132.031 52.221-11.645 2.133-22.303 3.188-31.854 3.188-8.294 0-15.733-.813-22.285-2.387.364.631.729 1.262 1.093 1.893 5.327 9.224 10.653 18.448 15.979 27.665 5.581 9.667 20.404 14.245 41.903 13.339l-9.488-16.453 12.807-7.386 12.855 22.291c2.689-.384 5.444-.828 8.276-1.348 11.943-2.189 24.646-5.491 37.84-9.792zm52.233-105.166c35.42-20.444 66.761-42.902 88.252-63.235 24.258-22.952 26.204-34.217 24.973-36.353-1.23-2.13-11.959-6.087-43.974 3.439-28.359 8.437-63.485 24.344-98.907 44.79l.002-.002c-35.426 20.463-66.766 42.929-88.248 63.26-24.25 22.953-26.186 34.214-24.952 36.349 1.235 2.138 11.961 6.093 43.962-3.434 28.353-8.442 63.474-24.358 98.892-44.814zm251.275 127.068c32.488-7.751 39.8-16.542 39.8-19.01 0-2.464-7.312-11.244-39.801-19-28.789-6.871-67.166-10.656-108.063-10.656-22.204 0-43.647 1.128-63.787 3.338-7.714 4.983-15.666 9.847-23.822 14.555-14.874 8.589-29.856 16.337-44.654 23.141 23.613 9.849 71.239 18.278 132.263 18.278 40.911 0 79.288-3.781 108.064-10.646zm-381.406 58.258h-14.783v20.708h-20.679v14.784h20.679v20.708h14.783v-20.708h20.709v-14.784h-20.709zm363.569-170.637h14.783v-20.708h20.709v-14.784h-20.709v-20.678h-14.783v20.678h-20.679v14.784h20.679zm-368.417-122.965h14.783v-20.708h20.709v-14.784h-20.709v-20.679h-14.783v20.678h-20.678v14.784h20.679v20.709z"/></svg>