<svg fill="#fff" viewBox="0 0 64 64" xmlns="http://www.w3.org/2000/svg"><g id="Investor-2" data-name="Investor"><path d="m59 12h-14v-7a3 3 0 0 0 -3-3h-20a3 3 0 0 0 -3 3v7h-14a3 3 0 0 0 -3 3v38a3 3 0 0 0 3 3h29v5a1 1 0 0 0 1 1h20a1 1 0 0 0 1-1v-5h3a3 3 0 0 0 3-3v-38a3 3 0 0 0 -3-3zm-38-7a1 1 0 0 1 1-1h20a1 1 0 0 1 1 1v7h-2v-5a1 1 0 0 0 -1-1h-16a1 1 0 0 0 -1 1v5h-2zm18 7h-14v-4h14zm-34 2h54a1 1 0 0 1 1 1v11h-6.518c-.222-.268-.456-.528-.7-.777a10.994 10.994 0 0 0 -15.554 0c-.249.249-.483.509-.7.777h-6.152a11.972 11.972 0 0 0 -20.752 0h-5.624v-11a1 1 0 0 1 1-1zm40 30a7.008 7.008 0 0 1 -7-7v-3.219l7-1.75 7 1.75v3.219a7.008 7.008 0 0 1 -7 7zm.243-13.97a.976.976 0 0 0 -.486 0l-7.879 1.97h-.823a9 9 0 0 1 17.89 0h-.823zm-25.243-8.03a10 10 0 1 1 -10 10 10.011 10.011 0 0 1 10-10zm-15 32a1 1 0 0 1 -1-1v-25h4.7a12 12 0 1 0 22.6 0h3.906a10.934 10.934 0 0 0 -1.206 5 1 1 0 0 0 1 1h1v3a8.994 8.994 0 0 0 4.048 7.507 9.009 9.009 0 0 0 -6.048 8.493v1zm49 6h-18v-7a7.008 7.008 0 0 1 7-7h1v9h2v-9h1a7.008 7.008 0 0 1 7 7zm5-6h-3v-1a9.009 9.009 0 0 0 -6.048-8.493 8.994 8.994 0 0 0 4.048-7.507v-3h1a1 1 0 0 0 1-1 10.934 10.934 0 0 0 -1.206-5h5.206v25a1 1 0 0 1 -1 1z"/><path d="m8 47h-2v4a1 1 0 0 0 1 1h4v-2h-3z"/><path d="m6 43h2v2h-2z"/><path d="m29 16h6v2h-6z"/><path d="m25 16h2v2h-2z"/><path d="m37 16h2v2h-2z"/><path d="m18 37-.011 1.958 2 .01.011-1.968h2l-.011 1.958 2 .01.011-2.151a2.972 2.972 0 0 0 1.22-4.817 2.972 2.972 0 0 0 -1.231-4.819l.011-2.176-2-.005-.011 2h-2l.01-2h-1.999l-.011 2h-3.989v2h2v6h-2v2zm5-2h-5v-2h5a1 1 0 0 1 0 2zm0-4h-5v-2h5a1 1 0 0 1 0 2z"/><path d="m60 4v-2h-2v2h-2v2h2v2h2v-2h2v-2z"/><path d="m4 8h2v-2h2v-2h-2v-2h-2v2h-2v2h2z"/></g></svg>