<svg id="Capa_1" fill="#fff" viewBox="0 0 512 512" xmlns="http://www.w3.org/2000/svg"><path d="m143.821 68.453c2.618 0 5.235-1.01 7.212-3.021 3.905-3.971 3.851-10.357-.12-14.262-3.97-3.905-10.354-3.849-14.261.12l-.029.029c-3.905 3.971-3.836 10.342.135 14.247 1.96 1.928 4.512 2.887 7.063 2.887z"/><path d="m329.076 285.169v-77.52c0-8.952-6.682-16.354-15.306-17.502v-3.373c0-34.068-27.687-61.784-61.718-61.784s-61.719 27.716-61.719 61.784v3.377c-8.626 1.16-15.306 8.555-15.306 17.498v77.52c0 9.73 7.925 17.647 17.665 17.647h118.748c9.724 0 17.636-7.916 17.636-17.647zm-77.025-140.009c22.911 0 41.551 18.669 41.551 41.614v3.2h-83.102v-3.2c.001-22.945 18.64-41.614 41.551-41.614zm56.858 137.487h-113.714v-72.503h113.714z"/><path d="m247.632 237.33-.058.028c-4.998 2.457-7.029 8.486-4.573 13.485 1.752 3.564 5.341 5.628 9.069 5.628 1.5 0 3.024-.335 4.458-1.04 4.998-2.457 7.058-8.501 4.601-13.5-2.455-4.997-8.497-7.057-13.497-4.601z"/><path d="m428.508 334.688c33.606-65.709 51.039-133.826 50.479-197.516-.31-33.839-9.626-41.337-36.185-54.113l-159.493-76.685c-17.573-8.477-37.424-8.497-54.487-.07l-49.459 23.792c-5.018 2.409-7.127 8.437-4.718 13.456 2.409 5.018 8.436 7.138 13.454 4.718l49.509-23.802c.04-.02.08-.04.11-.06 5.418-2.679 19.862-8.047 36.845.14l159.493 76.685c21.751 10.467 24.54 11.806 24.76 36.118.53 60.44-16.133 125.329-48.26 188.149-7.855-3.034-16.209-5.046-24.895-5.911 27.391-52.628 41.638-107.517 41.199-158.755-.245-27.205-8.057-33.598-28.672-43.725l-120.423-59.122c-14.027-6.867-29.86-6.877-43.45-.027l-120.512 59.154c-20.615 10.143-28.425 16.542-28.635 43.726-.438 51.286 13.839 106.26 41.29 158.98 29.642 56.88 65.087 98.273 105.351 123.027 9.953 6.127 17.073 9.188 24.196 9.187 7.116-.001 14.232-3.059 24.162-9.172.987-.603 1.978-1.234 2.97-1.867 2.823 10.32 7.317 19.956 13.176 28.597-6.707 4.978-13.524 9.557-20.452 13.726-18.742 11.286-20.971 11.286-39.683.01-49.679-29.94-93.751-80.634-130.985-150.651-34.576-65.039-52.558-132.587-52.008-195.327.22-24.312 3.009-25.652 24.75-36.118l29.928-14.375c5.018-2.409 7.137-8.437 4.718-13.456-2.409-5.018-8.426-7.138-13.454-4.719l-29.929 14.377c-26.559 12.776-35.875 20.273-36.185 54.113-.58 66.098 18.222 136.975 54.367 204.973 38.974 73.296 85.534 126.599 138.392 158.459 12.565 7.578 21.401 11.356 30.227 11.356 8.836 0 17.673-3.779 30.257-11.356 7.827-4.718 15.513-9.907 23.06-15.565 17.314 16.685 40.855 26.961 66.734 26.961 53.128 0 96.36-43.276 96.36-96.458 0-33.82-17.493-63.64-43.902-80.854zm-148.778 80.854c0 .598.023 1.191.034 1.786.01.538.01 1.07.03 1.614-3.476 2.469-6.83 4.688-10.169 6.727-7.225 4.447-11.045 6.18-13.625 6.18s-6.4-1.733-13.625-6.18c-.001-.001-.003-.002-.005-.003-37.113-22.819-70.095-61.567-98.026-115.164-25.93-49.8-39.418-101.493-39.008-149.498.07-9.114.872-13.908 2.767-16.543 1.951-2.714 6.263-5.145 14.595-9.244l120.557-59.175c.036-.018.071-.035.106-.054 2.724-1.377 7.112-3.015 12.568-3.015 3.855 0 8.246.818 12.957 3.125l120.411 59.117c8.345 4.099 12.66 6.528 14.612 9.245 1.894 2.635 2.7 7.432 2.782 16.552.411 48.017-13.087 99.708-39.027 149.473-1.82 3.476-3.512 6.638-5.119 9.555-.255.036-.502.083-.754.122-46.371 6.919-82.061 47.056-82.061 95.38zm96.32 76.285c-19.522 0-37.364-7.408-50.849-19.553-5.018-4.509-9.426-9.667-13.085-15.345-7.727-11.926-12.215-26.141-12.215-41.386 0-42.056 34.156-76.265 76.148-76.265 8.716 0 17.093 1.469 24.89 4.179 6.447 2.229 12.495 5.308 18.023 9.097 20.082 13.746 33.276 36.858 33.276 62.99 0 42.064-34.176 76.283-76.188 76.283z"/><path d="m395.621 389.958-29.22 30.024-10.212-9.584c-4.062-3.812-10.443-3.609-14.254.453-3.811 4.061-3.608 10.444.453 14.255l17.432 16.36c1.944 1.825 4.423 2.731 6.899 2.731 2.628 0 5.253-1.022 7.227-3.051l36.127-37.121c3.884-3.991 3.798-10.376-.193-14.261-3.99-3.884-10.375-3.799-14.259.194z"/></svg>