<svg id="Capa_1" fill="#fff" viewBox="0 0 512 512" xmlns="http://www.w3.org/2000/svg"><g><path d="m408 304c-57.438 0-104 46.562-104 104s46.562 104 104 104 104-46.562 104-104-46.562-104-104-104zm-39.99 49h.01c8.284 0 15 6.716 15 15s-6.716 15-15 15-15.005-6.716-15.005-15 6.711-15 14.995-15zm10.596 105.606c-2.928 2.93-6.767 4.394-10.606 4.394s-7.678-1.464-10.606-4.394c-5.858-5.858-5.858-15.355 0-21.213l80-80c5.857-5.858 15.355-5.858 21.213 0s5.858 15.355 0 21.213zm69.414 4.394c-8.284 0-15.005-6.716-15.005-15s6.71-15 14.995-15h.01c8.284 0 15 6.716 15 15s-6.716 15-15 15z"/><path d="m209 80c0-4.962-4.038-9-9-9s-9 4.038-9 9v9h18z"/><path d="m274 408c0-70.86 55.29-129.05 125-133.7v-229.3c0-24.81-20.19-45-45-45h-309c-24.81 0-45 20.19-45 45v422c0 24.81 20.19 45 45 45h278.59c-30.24-24.59-49.59-62.08-49.59-104zm85-224c0 8.284-6.716 15-15 15h-272c-8.284 0-15-6.716-15-15s6.716-15 15-15h272c8.284 0 15 6.716 15 15zm-83-119c-4.971-6.627-3.627-16.029 3-21 6.629-4.971 16.03-3.627 21 3l12 16 12-16c4.97-6.627 14.373-7.971 21-3s7.971 14.373 3 21l-17.25 23 17.25 23c4.971 6.627 3.627 16.029-3 21-2.698 2.023-5.857 3.001-8.988 3.001-4.561 0-9.065-2.072-12.012-6.001l-12-16-12 16c-2.947 3.929-7.451 6.001-12.012 6.001-3.132 0-6.29-.977-8.988-3.001-6.627-4.971-7.971-14.373-3-21l17.25-23zm-115 15c0-21.505 17.495-39 39-39s39 17.495 39 39v40c0 8.284-6.716 15-15 15s-15-6.716-15-15v-1h-18v1c0 8.284-6.716 15-15 15s-15-6.716-15-15zm-112-24c0-8.284 6.716-15 15-15h48c8.284 0 15 6.716 15 15s-6.716 15-15 15h-9v49c0 8.284-6.716 15-15 15s-15-6.716-15-15v-49h-9c-8.284 0-15-6.716-15-15zm98.73 350.43c-2.73 16.25-14 29.16-28.78 34.49-.47 7.85-6.97 14.08-14.95 14.08-7.38 0-13.51-5.34-14.75-12.36-7.01-1.2-13.38-3.78-21.45-9.06-6.93-4.54-8.88-13.83-4.34-20.77 4.53-6.93 13.83-8.87 20.76-4.34 7.31 4.79 9.67 5.15 19.68 5.09 9.65-.06 13.49-7.64 14.24-12.1.68-4.01-.08-9.34-7.51-11.97-12.46-4.4-25.23-9.45-34.28-16.55-9.62-7.55-14.05-20.5-11.54-33.79 2.57-13.66 11.83-24.66 24.34-29.14.98-7.34 7.24-13.01 14.85-13.01 7.28 0 13.34 5.19 14.71 12.06 3.132.893 7.267 3.333 11.315 6.138 7.747 5.367 8.98 16.333 2.587 23.258-4.87 5.274-12.712 6.487-18.978 2.983-4.577-2.56-9.889-4.568-14.044-3.318-3.99 1.2-5.07 5.35-5.3 6.59-.49 2.59.21 4.33.58 4.62 5.66 4.44 16.19 8.5 25.75 11.87 19.6 6.929 30.49 25.109 27.11 45.229zm76.27-15.43h-40c-8.284 0-15-6.716-15-15s6.716-15 15-15h40c8.284 0 15 6.716 15 15s-6.716 15-15 15zm0-64h-40c-8.284 0-15-6.716-15-15s6.716-15 15-15h40c8.284 0 15 6.716 15 15s-6.716 15-15 15zm0-64h-152c-8.284 0-15-6.716-15-15s6.716-15 15-15h152c8.284 0 15 6.716 15 15s-6.716 15-15 15z"/></g></svg>